<?xml version="1.0" encoding="UTF-8"?><svg id="Camada_2" xmlns="http://www.w3.org/2000/svg" xmlns:xlink="http://www.w3.org/1999/xlink" viewBox="0 0 1167.9 284.1"><defs><linearGradient id="Gradiente_sem_nome_4" x1="1394.2" y1="715.9" x2="1394.2" y2="597.9" gradientTransform="translate(-482.5 -701.2) scale(.8 1.2)" gradientUnits="userSpaceOnUse"><stop offset="0" stop-color="#305371" stop-opacity="0"/><stop offset="0" stop-color="#305371" stop-opacity=".1"/><stop offset=".2" stop-color="#305371" stop-opacity=".5"/><stop offset=".3" stop-color="#305371" stop-opacity=".8"/><stop offset=".5" stop-color="#305371" stop-opacity=".9"/><stop offset=".6" stop-color="#305371"/></linearGradient></defs><g id="Camada_1-2"><g><path d="M142.1,0H54.4C24.3,0,0,24.3,0,54.4V230.1c0,29.8,24.2,54,54,54h88c78.5,0,142.1-63.6,142.1-142.1S220.5,0,142.1,0m89.2,142.1c0,49.3-39.9,89.2-89.2,89.2h-55.3c-18.7,0-33.9-15.2-33.9-33.9V87c0-18.8,15.3-34.1,34.1-34.1h55.1c49.3,0,89.2,39.9,89.2,89.2Z" style="fill:#305371;"/><path d="M439.3,0C360.9,0,297.3,63.6,297.3,142.1s63.6,142.1,142.1,142.1,142.1-63.6,142.1-142.1S517.8,0,439.3,0m0,222.4c-44.4,0-80.4-36-80.4-80.4s36-80.4,80.4-80.4,80.4,36,80.4,80.4-36,80.4-80.4,80.4" style="fill:#305371;"/><path d="M883.7,0h0V284.1h58.1v-113h142.8c18.8,33.4,29.6,72,29.6,113h53.6C1167.9,127.2,1040.7,0,883.7,0m58.1,61c36.4,9.4,69.3,27.6,96.4,52h-96.4V61Z" style="fill:#305371;"/><g><polygon points="747.4 118.1 847.8 218.6 800 266.4 699.5 166 581.4 284.1 865.5 284.1 865.5 0 747.4 118.1" style="fill:#305371;"/><rect x="639.3" y="20.5" width="67.6" height="142.4" transform="translate(132.3 502.8) rotate(-45)" style="fill:url(#Gradiente_sem_nome_4);"/></g></g></g></svg>